<svg xmlns="http://www.w3.org/2000/svg" xmlns:xlink="http://www.w3.org/1999/xlink" width="2000" zoomAndPan="magnify" viewBox="0 0 1500 599.999999" height="800" preserveAspectRatio="xMidYMid meet" version="1.0"><defs><g/></defs><g fill="#e76323" fill-opacity="1"><g transform="translate(3.691407, 451.499997)"><g><path d="M 89.546875 -324.234375 C 99.328125 -340.953125 94.3125 -346.738281 74.5 -341.59375 C 53.90625 -336.707031 48.113281 -330.53125 57.125 -323.0625 C 56.863281 -321.007812 56.734375 -319.210938 56.734375 -317.671875 C 55.710938 -317.410156 54.6875 -317.148438 53.65625 -316.890625 C 42.582031 -324.359375 33.632812 -323.71875 26.8125 -314.96875 C 20 -306.21875 18.78125 -299.910156 23.15625 -296.046875 C 28.050781 -292.703125 38.859375 -292.445312 55.578125 -295.28125 C 55.328125 -273.664062 57.898438 -248.960938 63.296875 -221.171875 C 66.390625 -202.898438 75.398438 -189.257812 90.328125 -180.25 L 89.9375 -180.25 C 71.925781 -181.019531 60.988281 -178.445312 57.125 -172.53125 C 53.257812 -166.613281 54.671875 -160.820312 61.359375 -155.15625 C 68.054688 -149.5 79.507812 -150.914062 95.71875 -159.40625 C 118.113281 -162.75 138.570312 -165.453125 157.09375 -167.515625 C 161.46875 -167.515625 165.84375 -167.773438 170.21875 -168.296875 C 178.195312 -168.804688 185.660156 -169.445312 192.609375 -170.21875 C 209.847656 -170.988281 224.769531 -170.988281 237.375 -170.21875 C 270.570312 -168.15625 272.375 -132.898438 242.78125 -64.453125 C 235.832031 -54.929688 222.582031 -52.488281 203.03125 -57.125 C 202.257812 -63.039062 201.488281 -69.859375 200.71875 -77.578125 C 198.394531 -70.890625 195.820312 -64.972656 193 -59.828125 C 192.738281 -59.828125 192.347656 -59.957031 191.828125 -60.21875 C 191.316406 -58.664062 191.0625 -57.117188 191.0625 -55.578125 C 187.195312 -48.890625 183.46875 -44.003906 179.875 -40.921875 C 173.175781 -35.765625 157.347656 -33.570312 132.390625 -34.34375 C 107.429688 -35.125 94.113281 -39.050781 92.4375 -46.125 C 90.769531 -53.195312 96.5 -60.207031 109.625 -67.15625 C 116.050781 -74.875 107.75 -79.179688 84.71875 -80.078125 C 61.6875 -80.984375 57.25 -76.9375 71.40625 -67.9375 C 54.9375 -54.8125 52.363281 -41.878906 63.6875 -29.140625 C 75.007812 -16.398438 103.378906 -11.640625 148.796875 -14.859375 C 194.210938 -18.078125 214.863281 -22.515625 210.75 -28.171875 C 209.976562 -29.203125 209.207031 -30.75 208.4375 -32.8125 C 214.09375 -28.945312 220.910156 -25.34375 228.890625 -22 C 257.710938 -8.625 281.453125 -11.066406 300.109375 -29.328125 C 318.765625 -47.597656 330.40625 -76.097656 335.03125 -114.828125 C 339.664062 -153.554688 335.804688 -179.351562 323.453125 -192.21875 C 314.191406 -201.226562 293.09375 -205.347656 260.15625 -204.578125 C 257.582031 -218.472656 254.238281 -240.34375 250.125 -270.1875 C 258.351562 -266.582031 263.113281 -263.238281 264.40625 -260.15625 C 265.945312 -256.8125 268.257812 -253.53125 271.34375 -250.3125 C 274.4375 -247.09375 279.582031 -246.507812 286.78125 -248.5625 C 293.988281 -250.625 299.519531 -254.226562 303.375 -259.375 C 307.238281 -264.519531 306.46875 -270.3125 301.0625 -276.75 C 296.945312 -298.101562 295.40625 -308.585938 296.4375 -308.203125 C 297.46875 -307.816406 299.269531 -313.03125 301.84375 -323.84375 L 305.3125 -334.265625 C 308.40625 -346.359375 304.289062 -351.628906 292.96875 -350.078125 C 281.644531 -348.535156 274.179688 -346.09375 270.578125 -342.75 C 266.710938 -339.925781 266.84375 -334.910156 270.96875 -327.703125 C 245.75 -335.421875 231.460938 -336.0625 228.109375 -329.625 C 197.492188 -337.601562 151.304688 -335.804688 89.546875 -324.234375 Z M 274.046875 -302.21875 C 274.046875 -293.726562 273.40625 -283.4375 272.125 -271.34375 L 250.125 -272.125 C 249.601562 -274.945312 249.210938 -278.03125 248.953125 -281.375 C 248.953125 -278.03125 248.828125 -274.945312 248.578125 -272.125 L 245.09375 -272.125 C 246.382812 -271.601562 247.546875 -271.085938 248.578125 -270.578125 C 247.546875 -247.421875 244.84375 -231.976562 240.46875 -224.25 C 235.832031 -215.25 208.679688 -209.460938 159.015625 -206.890625 C 109.359375 -204.316406 83.882812 -221.039062 82.59375 -257.0625 C 81.820312 -275.851562 82.082031 -290.90625 83.375 -302.21875 C 146.15625 -316.375 194.015625 -315.734375 226.953125 -300.296875 L 220.015625 -292.578125 C 227.210938 -295.660156 234.546875 -296.816406 242.015625 -296.046875 C 255.140625 -295.535156 265.429688 -297.207031 272.890625 -301.0625 C 273.148438 -301.320312 273.535156 -301.707031 274.046875 -302.21875 Z M 56.359375 -124.28125 C 76.941406 -130.976562 96.367188 -135.867188 114.640625 -138.953125 C 109.742188 -139.460938 90.957031 -137.921875 58.28125 -134.328125 C 51.070312 -132.773438 46.375 -132.769531 44.1875 -134.3125 C 42.007812 -135.863281 42.207031 -138.566406 44.78125 -142.421875 C 47.351562 -146.285156 51.851562 -147.445312 58.28125 -145.90625 C 91.21875 -146.9375 115.148438 -149.25 130.078125 -152.84375 C 131.109375 -156.445312 137.925781 -156.320312 150.53125 -152.46875 C 153.875 -147.320312 153.9375 -143.71875 150.71875 -141.65625 C 147.507812 -139.59375 143.070312 -138.5625 137.40625 -138.5625 C 112.957031 -134.445312 91.601562 -129.6875 73.34375 -124.28125 C 98.550781 -125.570312 117.460938 -127.757812 130.078125 -130.84375 C 131.109375 -133.9375 137.925781 -133.679688 150.53125 -130.078125 C 153.875 -124.929688 153.9375 -121.390625 150.71875 -119.453125 C 147.507812 -117.523438 143.070312 -116.5625 137.40625 -116.5625 C 112.957031 -112.445312 91.601562 -107.429688 73.34375 -101.515625 C 98.550781 -102.796875 117.460938 -104.984375 130.078125 -108.078125 C 131.109375 -111.421875 137.925781 -111.289062 150.53125 -107.6875 C 153.875 -102.539062 153.9375 -99.003906 150.71875 -97.078125 C 147.507812 -95.148438 143.070312 -94.3125 137.40625 -94.5625 C 132.78125 -94.5625 128.019531 -92.503906 123.125 -88.390625 C 124.925781 -91.734375 126.988281 -94.175781 129.3125 -95.71875 C 114.632812 -95.71875 90.957031 -93.789062 58.28125 -89.9375 C 51.070312 -88.394531 46.375 -88.328125 44.1875 -89.734375 C 42.007812 -91.148438 42.207031 -93.921875 44.78125 -98.046875 C 47.09375 -101.128906 50.953125 -102.285156 56.359375 -101.515625 C 76.941406 -108.460938 96.367188 -113.476562 114.640625 -116.5625 C 109.742188 -117.332031 90.957031 -115.789062 58.28125 -111.9375 C 51.070312 -110.394531 46.375 -110.328125 44.1875 -111.734375 C 42.007812 -113.148438 42.207031 -116.046875 44.78125 -120.421875 C 47.09375 -123.765625 50.953125 -125.050781 56.359375 -124.28125 Z M 56.359375 -124.28125 "/></g></g></g><g fill="#e76323" fill-opacity="1"><g transform="translate(369.992944, 451.499997)"><g><path d="M 180.25 -206.109375 C 181.789062 -190.421875 185.007812 -178.84375 189.90625 -171.375 C 194.53125 -163.914062 190.925781 -156.519531 179.09375 -149.1875 C 167.257812 -141.851562 154.132812 -142.816406 139.71875 -152.078125 C 137.40625 -153.617188 134.832031 -156.0625 132 -159.40625 C 127.882812 -155.03125 123.382812 -150.65625 118.5 -146.28125 C 107.945312 -147.3125 106.914062 -150.660156 115.40625 -156.328125 C 118.75 -160.441406 121.835938 -164.429688 124.671875 -168.296875 C 114.378906 -182.960938 102.023438 -204.316406 87.609375 -232.359375 C 87.359375 -222.066406 86.71875 -211.773438 85.6875 -201.484375 C 83.625 -184.753906 78.734375 -167.128906 71.015625 -148.609375 C 77.703125 -146.804688 80.019531 -142.816406 77.96875 -136.640625 C 68.707031 -129.953125 64.460938 -112.066406 65.234375 -82.984375 C 66.003906 -53.910156 75.78125 -38.984375 94.5625 -38.203125 C 113.34375 -37.429688 124.410156 -39.878906 127.765625 -45.546875 C 129.304688 -48.117188 130.976562 -52.234375 132.78125 -57.890625 C 125.3125 -56.609375 116.816406 -55.066406 107.296875 -53.265625 C 101.117188 -51.203125 97.066406 -51.203125 95.140625 -53.265625 C 93.210938 -55.328125 93.40625 -59.054688 95.71875 -64.453125 C 97.519531 -69.597656 100.609375 -71.273438 104.984375 -69.484375 C 123.253906 -79.515625 140.238281 -86.585938 155.9375 -90.703125 C 151.300781 -92.242188 135.085938 -90.1875 107.296875 -84.53125 C 101.117188 -82.46875 97.066406 -82.398438 95.140625 -84.328125 C 93.210938 -86.265625 93.40625 -90.320312 95.71875 -96.5 C 97.519531 -100.613281 100.609375 -102.285156 104.984375 -101.515625 C 123.253906 -111.035156 140.238281 -117.851562 155.9375 -121.96875 C 151.300781 -123 135.085938 -120.941406 107.296875 -115.796875 C 101.117188 -113.734375 97.066406 -113.734375 95.140625 -115.796875 C 93.210938 -117.859375 93.40625 -121.585938 95.71875 -126.984375 C 98.03125 -132.390625 101.890625 -133.804688 107.296875 -131.234375 C 135.609375 -133.035156 156.195312 -136.507812 169.0625 -141.65625 C 169.832031 -146.539062 175.617188 -146.285156 186.421875 -140.890625 C 188.992188 -133.679688 188.929688 -128.722656 186.234375 -126.015625 C 183.535156 -123.316406 179.738281 -121.96875 174.84375 -121.96875 C 154 -116.050781 135.726562 -109.234375 120.03125 -101.515625 C 141.644531 -103.054688 157.988281 -106.144531 169.0625 -110.78125 C 169.832031 -114.894531 175.617188 -114.632812 186.421875 -110 C 188.992188 -102.539062 188.929688 -97.457031 186.234375 -94.75 C 183.535156 -92.050781 179.738281 -90.703125 174.84375 -90.703125 C 161.71875 -86.847656 149.492188 -82.734375 138.171875 -78.359375 C 138.171875 -76.035156 138.300781 -73.972656 138.5625 -72.171875 C 151.175781 -73.722656 161.34375 -76.171875 169.0625 -79.515625 C 169.832031 -83.628906 175.617188 -83.367188 186.421875 -78.734375 C 188.992188 -71.273438 188.929688 -66.257812 186.234375 -63.6875 C 183.535156 -61.113281 179.738281 -59.828125 174.84375 -59.828125 C 171.238281 -60.335938 167.25 -57.503906 162.875 -51.328125 C 164.164062 -55.960938 165.84375 -59.4375 167.90625 -61.75 C 160.695312 -61.75 151.046875 -60.851562 138.953125 -59.0625 C 139.722656 -44.90625 140.878906 -35.894531 142.421875 -32.03125 C 144.484375 -26.113281 131.164062 -21.609375 102.46875 -18.515625 C 73.78125 -15.429688 56.863281 -26.242188 51.71875 -50.953125 C 47.851562 -68.453125 47.46875 -88.132812 50.5625 -110 C 33.582031 -77.0625 9.265625 -46.695312 -22.390625 -18.90625 C -27.796875 -18.394531 -29.46875 -21.097656 -27.40625 -27.015625 C -14.03125 -44.773438 0.0507812 -68.320312 14.84375 -97.65625 C 29.644531 -126.988281 40.328125 -158.1875 46.890625 -191.25 C 53.453125 -224.320312 53.644531 -256.425781 47.46875 -287.5625 C 39.488281 -295.28125 35.628906 -302.351562 35.890625 -308.78125 C 36.148438 -310.84375 36.921875 -312.390625 38.203125 -313.421875 C 25.859375 -313.160156 17.625 -316.375 13.5 -323.0625 C 4.757812 -334.90625 -2.828125 -341.726562 -9.265625 -343.53125 C 11.835938 -346.613281 25.410156 -348.734375 31.453125 -349.890625 C 37.503906 -351.046875 45.609375 -350.335938 55.765625 -347.765625 C 65.929688 -345.191406 72.6875 -340.304688 76.03125 -333.109375 C 76.800781 -327.191406 75.390625 -322.6875 71.796875 -319.59375 C 73.335938 -317.789062 74.492188 -315.472656 75.265625 -312.640625 C 75.523438 -311.097656 75.910156 -309.554688 76.421875 -308.015625 C 81.054688 -304.671875 82.472656 -300.296875 80.671875 -294.890625 C 92.765625 -260.921875 108.71875 -234.160156 128.53125 -214.609375 C 136.25 -207.398438 142.679688 -201.351562 147.828125 -196.46875 C 172.015625 -225.289062 191.054688 -248.191406 204.953125 -265.171875 C 224.515625 -288.847656 236.476562 -308.019531 240.84375 -322.6875 C 231.320312 -343.53125 237.882812 -351.117188 260.53125 -345.453125 C 283.175781 -339.796875 297.132812 -329.242188 302.40625 -313.796875 C 307.6875 -298.359375 304.535156 -289.613281 292.953125 -287.5625 C 284.722656 -284.988281 276.617188 -281.769531 268.640625 -277.90625 C 269.929688 -219.75 280.867188 -171.757812 301.453125 -133.9375 C 324.347656 -91.738281 338.429688 -69.992188 343.703125 -68.703125 C 348.984375 -67.421875 358.1875 -78.226562 371.3125 -101.125 C 366.425781 -76.425781 365.523438 -57.769531 368.609375 -45.15625 C 371.703125 -32.550781 363.210938 -23.800781 343.140625 -18.90625 C 323.066406 -14.019531 305.050781 -21.226562 289.09375 -40.53125 C 273.914062 -59.3125 256.804688 -131.75 237.765625 -257.84375 C 237.242188 -257.582031 236.859375 -257.320312 236.609375 -257.0625 C 225.285156 -248.570312 206.5 -231.585938 180.25 -206.109375 Z M 216.921875 -169.453125 C 215.628906 -170.222656 214.597656 -171.25 213.828125 -172.53125 C 209.710938 -178.445312 205.851562 -181.664062 202.25 -182.1875 C 209.457031 -183.988281 214.472656 -185.144531 217.296875 -185.65625 C 220.128906 -186.175781 224.179688 -185.789062 229.453125 -184.5 C 234.734375 -183.21875 238.144531 -180.898438 239.6875 -177.546875 C 240.207031 -172.148438 236.992188 -168.9375 230.046875 -167.90625 C 234.421875 -166.613281 237.507812 -164.425781 239.3125 -161.34375 C 240.082031 -155.675781 236.539062 -152.519531 228.6875 -151.875 C 220.84375 -151.238281 215.765625 -152.722656 213.453125 -156.328125 C 209.078125 -162.242188 205.210938 -165.585938 201.859375 -166.359375 C 208.554688 -167.898438 213.445312 -168.929688 216.53125 -169.453125 Z M 215.765625 -209.203125 C 214.222656 -210.234375 212.9375 -211.390625 211.90625 -212.671875 C 207.007812 -218.847656 202.765625 -222.320312 199.171875 -223.09375 C 206.890625 -224.894531 212.351562 -226.050781 215.5625 -226.5625 C 218.78125 -227.082031 223.21875 -226.632812 228.875 -225.21875 C 234.539062 -223.800781 238.273438 -221.289062 240.078125 -217.6875 C 240.585938 -212.03125 236.984375 -208.5625 229.265625 -207.28125 C 234.160156 -205.988281 237.632812 -203.671875 239.6875 -200.328125 C 240.207031 -194.148438 236.285156 -190.675781 227.921875 -189.90625 C 219.554688 -189.132812 214.085938 -190.9375 211.515625 -195.3125 C 206.628906 -201.226562 202.515625 -204.570312 199.171875 -205.34375 C 206.367188 -207.144531 211.640625 -208.429688 214.984375 -209.203125 Z M 135.859375 -71.796875 C 136.378906 -73.597656 136.894531 -75.785156 137.40625 -78.359375 C 131.226562 -75.523438 125.4375 -72.820312 120.03125 -70.25 C 125.695312 -70.757812 130.972656 -71.273438 135.859375 -71.796875 Z M 159.40625 -186.4375 C 164.300781 -183.082031 167.390625 -181.40625 168.671875 -181.40625 C 172.273438 -181.664062 176.003906 -189.773438 179.859375 -205.734375 C 173.429688 -199.816406 166.613281 -193.382812 159.40625 -186.4375 Z M 159.40625 -186.4375 "/></g></g></g><g fill="#e76323" fill-opacity="1"><g transform="translate(754.435862, 451.499997)"><g><path d="M 226.1875 -184.890625 C 215.632812 -179.742188 203.925781 -177.554688 191.0625 -178.328125 C 180.25 -178.835938 169.441406 -182.050781 158.640625 -187.96875 C 162.234375 -175.363281 177.539062 -158.507812 204.5625 -137.40625 C 219.75 -145.894531 233.90625 -152.203125 247.03125 -156.328125 C 243.164062 -157.609375 228.238281 -155.421875 202.25 -149.765625 C 196.59375 -147.703125 192.925781 -147.632812 191.25 -149.5625 C 189.570312 -151.5 189.765625 -155.425781 191.828125 -161.34375 C 193.628906 -165.71875 196.585938 -167.390625 200.703125 -166.359375 C 217.171875 -175.878906 232.613281 -182.695312 247.03125 -186.8125 C 244.457031 -187.332031 237.507812 -186.691406 226.1875 -184.890625 Z M 165.96875 -245.09375 C 163.90625 -245.875 162.363281 -247.035156 161.34375 -248.578125 C 155.675781 -255.773438 150.523438 -259.632812 145.890625 -260.15625 C 155.160156 -262.46875 161.851562 -263.945312 165.96875 -264.59375 C 170.082031 -265.238281 175.550781 -264.785156 182.375 -263.234375 C 189.195312 -261.691406 193.894531 -258.734375 196.46875 -254.359375 C 197.238281 -247.929688 192.734375 -244.203125 182.953125 -243.171875 C 188.867188 -241.367188 193.242188 -238.535156 196.078125 -234.671875 C 196.847656 -227.984375 192.019531 -224.253906 181.59375 -223.484375 C 171.175781 -222.710938 164.296875 -224.515625 160.953125 -228.890625 C 155.035156 -236.097656 149.890625 -240.085938 145.515625 -240.859375 C 154.515625 -242.910156 160.945312 -244.195312 164.8125 -244.71875 Z M 163.265625 -293.34375 C 161.460938 -294.375 160.046875 -295.660156 159.015625 -297.203125 C 152.328125 -304.921875 146.664062 -309.296875 142.03125 -310.328125 C 152.070312 -312.390625 159.28125 -313.675781 163.65625 -314.1875 C 168.03125 -314.707031 173.945312 -314.191406 181.40625 -312.640625 C 188.875 -311.097656 194.019531 -308.140625 196.84375 -303.765625 C 197.875 -296.566406 193.113281 -292.320312 182.5625 -291.03125 C 189 -289.488281 193.632812 -286.660156 196.46875 -282.546875 C 196.976562 -275.078125 191.632812 -270.890625 180.4375 -269.984375 C 169.25 -269.085938 161.984375 -271.085938 158.640625 -275.984375 C 151.691406 -283.441406 146.03125 -287.6875 141.65625 -288.71875 C 151.425781 -291.03125 158.5 -292.570312 162.875 -293.34375 Z M 104.984375 -209.96875 C 103.953125 -202.769531 103.050781 -195.050781 102.28125 -186.8125 C 99.96875 -160.050781 103.054688 -124.15625 111.546875 -79.125 C 118.753906 -68.0625 119.78125 -58.023438 114.625 -49.015625 L 122.359375 -46.3125 C 131.097656 -68.707031 131.097656 -99.84375 122.359375 -139.71875 C 117.722656 -146.664062 116.945312 -152.457031 120.03125 -157.09375 C 123.375 -161.46875 129.421875 -162.625 138.171875 -160.5625 C 133.285156 -169.832031 128.910156 -179.097656 125.046875 -188.359375 C 121.453125 -195.816406 120.679688 -201.609375 122.734375 -205.734375 L 122.359375 -205.734375 C 119.523438 -206.503906 116.5625 -205.472656 113.46875 -202.640625 L 116.171875 -209.59375 C 113.085938 -209.84375 109.359375 -209.96875 104.984375 -209.96875 Z M 112.3125 -45.9375 C 106.394531 -38.46875 98.675781 -33.191406 89.15625 -30.109375 C 78.351562 -26.503906 70.503906 -27.40625 65.609375 -32.8125 C 60.722656 -38.21875 57.054688 -43.941406 54.609375 -49.984375 C 52.160156 -56.035156 42.316406 -62.921875 25.078125 -70.640625 L 67.15625 -69.484375 C 73.59375 -106.015625 74.878906 -152.203125 71.015625 -208.046875 C 63.554688 -207.273438 55.453125 -206.242188 46.703125 -204.953125 C 39.753906 -202.640625 35.378906 -203.023438 33.578125 -206.109375 C 31.773438 -209.203125 32.285156 -214.285156 35.109375 -221.359375 C 37.941406 -228.441406 42.320312 -230.050781 48.25 -226.1875 C 55.707031 -225.925781 62.910156 -225.925781 69.859375 -226.1875 C 68.828125 -236.738281 67.671875 -247.675781 66.390625 -259 C 58.921875 -272.632812 57.4375 -284.46875 61.9375 -294.5 C 66.445312 -304.539062 76.351562 -306.472656 91.65625 -300.296875 C 106.96875 -294.117188 115.65625 -284.984375 117.71875 -272.890625 L 111.9375 -254.359375 C 110.644531 -247.160156 109.226562 -239.1875 107.6875 -230.4375 C 111.03125 -231.207031 114.117188 -232.109375 116.953125 -233.140625 C 118.234375 -239.054688 124.796875 -238.023438 136.640625 -230.046875 C 138.179688 -222.328125 138.050781 -216.535156 136.25 -212.671875 L 136.640625 -212.671875 C 151.554688 -214.222656 159.398438 -210.75 160.171875 -202.25 C 158.378906 -199.9375 157.484375 -197.238281 157.484375 -194.15625 C 172.660156 -192.351562 184.109375 -194.28125 191.828125 -199.9375 C 218.078125 -279.195312 210.804688 -320.5 170.015625 -323.84375 C 129.234375 -327.1875 94.175781 -320.625 64.84375 -304.15625 C 54.800781 -291.289062 42.960938 -286.59375 29.328125 -290.0625 C 15.691406 -293.539062 14.148438 -302.289062 24.703125 -316.3125 C 35.253906 -330.332031 49.40625 -335.15625 67.15625 -330.78125 C 93.144531 -342.625 126.914062 -348.476562 168.46875 -348.34375 C 210.03125 -348.21875 237.375 -342.492188 250.5 -331.171875 C 263.625 -319.847656 266.710938 -294.890625 259.765625 -256.296875 C 255.128906 -231.335938 249.46875 -212.9375 242.78125 -201.09375 C 249.46875 -202.632812 255 -204.304688 259.375 -206.109375 C 259.894531 -210.742188 265.300781 -210.488281 275.59375 -205.34375 C 277.90625 -198.132812 277.773438 -193.242188 275.203125 -190.671875 C 272.628906 -188.097656 269.285156 -186.8125 265.171875 -186.8125 C 245.609375 -180.894531 228.625 -174.078125 214.21875 -166.359375 C 234.03125 -168.160156 249.082031 -171.117188 259.375 -175.234375 C 259.894531 -179.609375 265.300781 -179.476562 275.59375 -174.84375 C 277.90625 -167.644531 277.773438 -162.757812 275.203125 -160.1875 C 272.628906 -157.613281 269.285156 -156.328125 265.171875 -156.328125 C 245.609375 -150.410156 228.625 -143.585938 214.21875 -135.859375 C 234.03125 -137.660156 249.082031 -140.625 259.375 -144.75 C 259.894531 -149.125 265.300781 -148.863281 275.59375 -143.96875 C 277.90625 -136.769531 277.773438 -131.878906 275.203125 -129.296875 C 272.628906 -126.722656 269.285156 -125.4375 265.171875 -125.4375 C 261.566406 -125.957031 257.707031 -123.257812 253.59375 -117.34375 C 255.132812 -121.96875 256.675781 -125.3125 258.21875 -127.375 C 250.238281 -127.375 238.785156 -126.085938 223.859375 -123.515625 C 262.972656 -95.210938 289.09375 -80.03125 302.21875 -77.96875 C 317.144531 -75.65625 326.925781 -85.945312 331.5625 -108.84375 C 330.78125 -82.851562 333.285156 -64.328125 339.078125 -53.265625 C 344.867188 -42.203125 329.429688 -34.414062 292.765625 -29.90625 C 256.097656 -25.40625 222.320312 -42.195312 191.4375 -80.28125 C 176 -99.84375 162.75 -118.882812 151.6875 -137.40625 C 148.601562 -128.144531 148.085938 -115.796875 150.140625 -100.359375 C 152.203125 -84.398438 152.332031 -67.03125 150.53125 -48.25 C 155.675781 -42.332031 156.382812 -37.1875 152.65625 -32.8125 C 148.925781 -28.4375 143.710938 -25.347656 137.015625 -23.546875 C 130.328125 -21.742188 125.375 -22.191406 122.15625 -24.890625 C 118.9375 -27.597656 117.457031 -30.625 117.71875 -33.96875 C 117.976562 -36.800781 116.175781 -40.789062 112.3125 -45.9375 Z M 112.3125 -45.9375 "/></g></g></g><g fill="#e76323" fill-opacity="1"><g transform="translate(1118.421414, 451.499997)"><g><path d="M 153.625 -211.515625 C 144.101562 -207.910156 135.097656 -204.179688 126.609375 -200.328125 C 136.640625 -201.097656 145.769531 -202 154 -203.03125 C 154 -205.863281 153.875 -208.691406 153.625 -211.515625 Z M 143.203125 -296.828125 C 119.015625 -295.273438 92.765625 -293.210938 64.453125 -290.640625 C 43.097656 -286.523438 29.269531 -287.363281 22.96875 -293.15625 C 16.664062 -298.945312 17.953125 -308.46875 26.828125 -321.71875 C 35.703125 -334.96875 49.789062 -337.988281 69.09375 -330.78125 C 167.382812 -329.5 239.820312 -334.003906 286.40625 -344.296875 C 290.78125 -355.359375 311.878906 -353.429688 349.703125 -338.515625 C 355.617188 -319.472656 353.75 -306.734375 344.09375 -300.296875 C 334.445312 -293.859375 321.003906 -291.414062 303.765625 -292.96875 C 294.503906 -293.988281 284.984375 -291.925781 275.203125 -286.78125 L 284.859375 -299.53125 C 260.148438 -300.8125 229.015625 -300.679688 191.453125 -299.140625 C 196.597656 -293.992188 199.8125 -287.816406 201.09375 -280.609375 L 200.71875 -280.21875 C 201.738281 -279.96875 202.894531 -279.582031 204.1875 -279.0625 C 207.019531 -270.832031 206.757812 -265.300781 203.40625 -262.46875 C 201.351562 -260.15625 198.523438 -258.613281 194.921875 -257.84375 C 194.410156 -254.488281 193.894531 -251.015625 193.375 -247.421875 C 196.46875 -246.648438 200.070312 -245.488281 204.1875 -243.9375 C 207.019531 -235.707031 206.757812 -230.046875 203.40625 -226.953125 C 200.582031 -223.867188 196.335938 -222.328125 190.671875 -222.328125 C 190.421875 -219.234375 190.164062 -216.015625 189.90625 -212.671875 C 193.25 -212.421875 198.007812 -211.132812 204.1875 -208.8125 C 207.019531 -200.320312 206.890625 -194.597656 203.796875 -191.640625 C 200.710938 -188.679688 196.210938 -187.203125 190.296875 -187.203125 L 187.96875 -187.203125 L 187.59375 -180.25 C 187.332031 -174.59375 187.203125 -169.0625 187.203125 -163.65625 C 192.085938 -164.425781 196.460938 -165.328125 200.328125 -166.359375 C 201.609375 -169.960938 206.109375 -170.609375 213.828125 -168.296875 C 214.859375 -168.035156 216.019531 -167.90625 217.3125 -167.90625 C 232.238281 -166.613281 237.769531 -161.59375 233.90625 -152.84375 C 226.695312 -146.414062 222.835938 -130.722656 222.328125 -105.765625 C 233.648438 -107.304688 241.882812 -108.332031 247.03125 -108.84375 C 252.945312 -109.363281 261.113281 -108.914062 271.53125 -107.5 C 281.957031 -106.082031 288.972656 -103.570312 292.578125 -99.96875 C 293.859375 -94.050781 286.710938 -90.640625 271.140625 -89.734375 C 255.578125 -88.835938 245.351562 -90.578125 240.46875 -94.953125 C 233.519531 -99.585938 227.472656 -102.675781 222.328125 -104.21875 C 222.328125 -100.351562 222.457031 -96.109375 222.71875 -91.484375 C 222.71875 -87.878906 222.972656 -84.53125 223.484375 -81.4375 C 233.003906 -82.46875 240.207031 -83.242188 245.09375 -83.765625 C 251.269531 -84.273438 259.441406 -83.882812 269.609375 -82.59375 C 279.773438 -81.3125 286.785156 -78.867188 290.640625 -75.265625 C 291.929688 -69.085938 284.859375 -65.613281 269.421875 -64.84375 C 253.984375 -64.070312 243.816406 -65.742188 238.921875 -69.859375 C 233.515625 -73.722656 228.5 -76.554688 223.875 -78.359375 C 227.726562 -53.910156 240.59375 -41.300781 262.46875 -40.53125 C 288.195312 -39.238281 303.25 -41.679688 307.625 -47.859375 C 312 -54.035156 316.632812 -67.929688 321.53125 -89.546875 C 322.550781 -58.148438 324.601562 -39.109375 327.6875 -32.421875 C 330.78125 -25.734375 312.707031 -20.648438 273.46875 -17.171875 C 234.226562 -13.703125 210.875 -26.117188 203.40625 -54.421875 C 197.238281 -79.898438 198.140625 -109.363281 206.109375 -142.8125 C 203.023438 -143.070312 199.8125 -141.914062 196.46875 -139.34375 L 199.9375 -145.515625 C 196.332031 -145.773438 192.21875 -145.90625 187.59375 -145.90625 C 188.101562 -121.96875 190.546875 -96.75 194.921875 -70.25 C 202.640625 -57.894531 203.539062 -46.890625 197.625 -37.234375 C 191.707031 -27.585938 183.210938 -20.898438 172.140625 -17.171875 C 161.078125 -13.441406 153.035156 -14.472656 148.015625 -20.265625 C 143.003906 -26.054688 139.335938 -32.234375 137.015625 -38.796875 C 134.703125 -45.359375 124.796875 -52.882812 107.296875 -61.375 L 149.765625 -60.21875 C 151.816406 -84.40625 152.84375 -112.582031 152.84375 -144.75 C 143.070312 -143.976562 132.265625 -143.078125 120.421875 -142.046875 C 112.453125 -139.472656 107.375 -139.597656 105.1875 -142.421875 C 103 -145.253906 103.507812 -149.757812 106.71875 -155.9375 C 109.9375 -162.113281 115.019531 -163.65625 121.96875 -160.5625 C 133.03125 -160.3125 143.320312 -160.3125 152.84375 -160.5625 C 152.59375 -169.0625 152.335938 -177.941406 152.078125 -187.203125 C 139.984375 -185.660156 125.570312 -183.34375 108.84375 -180.25 C 101.125 -177.675781 96.171875 -177.613281 93.984375 -180.0625 C 91.796875 -182.507812 92.117188 -186.691406 94.953125 -192.609375 C 97.015625 -198.265625 100.875 -200.191406 106.53125 -198.390625 C 122.226562 -206.628906 137.023438 -213.0625 150.921875 -217.6875 C 150.921875 -219.238281 150.921875 -220.65625 150.921875 -221.9375 C 140.878906 -220.90625 126.851562 -218.71875 108.84375 -215.375 C 101.125 -212.800781 96.171875 -212.609375 93.984375 -214.796875 C 91.796875 -216.984375 92.117188 -221.550781 94.953125 -228.5 C 97.015625 -233.394531 100.875 -235.328125 106.53125 -234.296875 C 121.195312 -242.015625 135.476562 -248.0625 149.375 -252.4375 L 149.375 -256.671875 C 139.59375 -255.390625 126.082031 -253.332031 108.84375 -250.5 C 101.125 -247.925781 96.171875 -247.863281 93.984375 -250.3125 C 91.796875 -252.757812 92.050781 -257.003906 94.75 -263.046875 C 97.457031 -269.097656 102.15625 -270.707031 108.84375 -267.875 C 123 -268.644531 135.476562 -269.800781 146.28125 -271.34375 C 142.425781 -280.863281 141.398438 -289.359375 143.203125 -296.828125 Z M 152.46875 -246.265625 C 143.195312 -242.660156 134.578125 -239.054688 126.609375 -235.453125 C 136.128906 -236.222656 144.875 -237.125 152.84375 -238.15625 C 152.59375 -240.976562 152.46875 -243.679688 152.46875 -246.265625 Z M 152.46875 -246.265625 "/></g></g></g></svg>